<svg xmlns="http://www.w3.org/2000/svg" viewBox="0 0 260 260" fill="none">
  <defs>
    <linearGradient id="body" x1="0" y1="0" x2="1" y2="0.3"><stop offset="0" stop-color="#FFFFFF"/><stop offset=".45" stop-color="#E9EFF2"/><stop offset="1" stop-color="#9FB0B9"/></linearGradient>
    <linearGradient id="rod" x1="0" x2="1"><stop offset="0" stop-color="#FFFFFF"/><stop offset=".5" stop-color="#DDE5E9"/><stop offset="1" stop-color="#8FA1AB"/></linearGradient>
    <linearGradient id="side" x1="0" x2="1"><stop offset="0" stop-color="#C9D5DA"/><stop offset="1" stop-color="#8396A0"/></linearGradient>
    <linearGradient id="top" x1="0" x2="1"><stop offset="0" stop-color="#FFFFFF"/><stop offset="1" stop-color="#E1E9EC"/></linearGradient>
    <linearGradient id="band" x1="0" x2="1"><stop offset="0" stop-color="#8CF2B4"/><stop offset=".5" stop-color="#34D26F"/><stop offset="1" stop-color="#138848"/></linearGradient>
    <linearGradient id="deep" x1="0" y1="0" x2="1" y2="1"><stop offset="0" stop-color="#1FA75A"/><stop offset="1" stop-color="#0B5A30"/></linearGradient>
    <radialGradient id="hl" cx="30%" cy="20%" r="60%"><stop offset="0" stop-color="#fff" stop-opacity=".9"/><stop offset="1" stop-color="#fff" stop-opacity="0"/></radialGradient>
    <filter id="sd" x="-30%" y="-30%" width="160%" height="160%"><feDropShadow dx="-4" dy="8" stdDeviation="7" flood-color="#04210F" flood-opacity=".32"/></filter>
  </defs>
<defs><mask id="m"><rect x="-60" y="-20" width="120" height="120" fill="#fff"/><rect x="-11" y="-14" width="22" height="34" rx="5" fill="#000"/></mask></defs>
<g transform="translate(120 40) rotate(-34)" filter="url(#sd)">
 <rect x="-11" y="0" width="22" height="72" rx="10" fill="url(#band)"/>
 <path d="M-11 18h22M-11 30h22M-11 42h22M-11 54h22" stroke="#0B5A30" stroke-opacity=".35" stroke-width="2.500"/>
 <rect x="-12" y="70" width="24" height="12" rx="4" fill="url(#rod)"/>
 <rect x="-4.500" y="80" width="9" height="92" rx="4" fill="url(#rod)"/>
 <path d="M-4.500 168h9l-1 20h-7z" fill="url(#side)"/></g>
<g transform="translate(206 36) rotate(32)" filter="url(#sd)">
 <rect x="-10" y="30" width="20" height="170" rx="10" fill="url(#rod)"/>
 <rect x="-5" y="40" width="3" height="150" rx="1.500" fill="#fff" opacity=".7"/>
 <g mask="url(#m)"><circle cx="0" cy="22" r="29" fill="url(#body)"/></g>
 <circle cx="0" cy="190" r="10" fill="url(#band)" opacity="0"/></g>
<path d="M106 139l3.3 7.699999999999999 7.699999999999999 3.3-7.699999999999999 3.3-3.3 7.699999999999999-3.3-7.699999999999999-7.699999999999999-3.3 7.699999999999999-3.3z" fill="#fff" opacity="0.9"/><path d="M238 162l2.4 5.6 5.6 2.4-5.6 2.4-2.4 5.6-2.4-5.6-5.6-2.4 5.6-2.4z" fill="#fff" opacity="0.75"/>
</svg>
