<svg width="40" height="40" viewBox="0 0 40 40" fill="none" xmlns="http://www.w3.org/2000/svg">
<path d="M37.6917 8.82669C38.192 8.33308 38.5769 7.73493 38.819 7.0751C39.061 6.41526 39.1541 5.71007 39.0917 5.01003C38.6583 0.560028 31.6733 1.67669 27.4067 9.39336C27.3389 9.50626 27.3183 9.64134 27.3495 9.76929C27.3807 9.89723 27.4612 10.0077 27.5733 10.0767C27.6338 10.1211 27.7032 10.1517 27.7768 10.1666C27.8503 10.1814 27.9262 10.1801 27.9991 10.1626C28.0721 10.1452 28.1404 10.1121 28.1992 10.0656C28.2581 10.0191 28.3061 9.9603 28.34 9.89336C29.6733 7.77669 32.54 4.66003 35.0067 4.1767C35.671 3.93982 36.4021 3.97578 37.04 4.27669C37.7733 4.82669 37.3733 6.36003 36.84 7.12669L35.59 8.34336C35.4733 8.54336 34.5233 9.22669 35.09 10.01C35.6567 10.7934 36.7567 10.01 37.7733 11.1767C39.59 13.1934 34.8233 14.3267 34.9567 15.6767C34.9567 16.2767 35.6733 16.3767 36.3733 16.5267C39.24 17.0617 35.34 21.7784 30.8733 22.3284C30.7275 22.3491 30.595 22.4241 30.5022 22.5385C30.4095 22.6529 30.3635 22.7981 30.3733 22.945C30.5067 24.145 33.8067 22.7784 34.79 22.2617C36.011 21.6769 37.0955 20.8423 37.9733 19.8117C38.2644 19.5115 38.4914 19.1552 38.6404 18.7645C38.7895 18.3738 38.8575 17.9568 38.8403 17.539C38.8232 17.1212 38.7212 16.7112 38.5407 16.3341C38.3601 15.9569 38.1047 15.6204 37.79 15.345C41.1733 13.0784 40.29 9.84503 37.69 8.82836M9.13666 21.8117C7.96299 21.6133 6.83417 21.2069 5.80333 20.6117C4.67 19.9784 3.01833 18.7117 2.735 17.4117C2.26833 15.145 4.75166 16.8284 5.00166 15.1617C5.01162 14.9767 4.97395 14.7921 4.89225 14.6258C4.81054 14.4595 4.68754 14.3169 4.535 14.2117C4.235 13.995 3.435 13.5284 3.385 13.495C2.9469 13.2238 2.55337 12.8865 2.21833 12.495C2.02521 12.2966 1.89222 12.0475 1.83474 11.7766C1.77727 11.5057 1.79766 11.2241 1.89355 10.9643C1.98944 10.7045 2.15693 10.4772 2.37662 10.3086C2.59631 10.14 2.85924 10.0371 3.135 10.0117C3.50166 10.0117 4.41833 10.0117 5.00166 9.47836C6.05166 8.16003 2.935 7.69336 2.71833 5.01003C2.67089 4.78884 2.68124 4.55916 2.74839 4.34313C2.81553 4.12711 2.9372 3.93202 3.10166 3.7767C3.3412 3.61033 3.62671 3.52293 3.91833 3.52669C5.49033 3.60474 6.98402 4.23646 8.135 5.31003C9.54666 6.49336 10.7717 7.88003 11.7683 9.42669C11.8009 9.48167 11.8441 9.52964 11.8953 9.56782C11.9466 9.606 12.0049 9.63365 12.0669 9.64914C12.1289 9.66464 12.1933 9.6677 12.2565 9.65812C12.3197 9.64855 12.3804 9.62653 12.435 9.59336C12.4919 9.56056 12.5418 9.51685 12.5819 9.46475C12.6219 9.41264 12.6513 9.35316 12.6683 9.28969C12.6853 9.22623 12.6897 9.16003 12.6811 9.09489C12.6725 9.02974 12.6512 8.96693 12.6183 8.91003C11.6467 7.20684 10.4215 5.66138 8.985 4.32669C7.98784 3.36439 6.78548 2.6407 5.46833 2.21003C4.85702 2.02927 4.22245 1.93942 3.585 1.94336C3.06186 1.97138 2.55563 2.13821 2.11833 2.42669C1.77253 2.67343 1.48664 2.99477 1.2818 3.36693C1.07697 3.73909 0.958447 4.15254 0.934996 4.5767C0.876583 5.26889 0.971785 5.96544 1.2138 6.61658C1.45581 7.26771 1.83867 7.85735 2.335 8.34336C1.75752 8.56706 1.24284 8.92733 0.834996 9.39336C0.330695 9.9413 0.0356348 10.6494 0.00166291 11.3934C-0.0166704 12.0934 0.19333 12.7767 0.601663 13.3434C1.05666 13.945 1.62333 14.4534 2.26833 14.8434C1.87651 15.1157 1.57477 15.4987 1.40166 15.9434C1.228 16.4242 1.18769 16.9431 1.285 17.445C1.39666 18.1234 1.68333 18.7617 2.11833 19.295C2.98771 20.2826 4.04051 21.092 5.21833 21.6784C6.40659 22.2907 7.69251 22.6911 9.01833 22.8617C9.16613 22.8757 9.31354 22.8312 9.42886 22.7377C9.54418 22.6442 9.6182 22.5092 9.635 22.3617C9.63557 22.2241 9.58453 22.0913 9.49197 21.9894C9.3994 21.8876 9.2737 21.8242 9.13666 21.8117ZM13.9867 28.9634C13.8568 28.9587 13.7302 29.0049 13.6338 29.092C13.5373 29.1791 13.4786 29.3003 13.47 29.43C13.27 30.3634 13.02 31.2634 12.8533 32.1967C12.7736 32.593 12.7179 32.9937 12.6867 33.3967C12.6867 33.7967 12.6867 34.1967 12.6033 34.5967V37.43C12.5878 37.5741 12.628 37.7186 12.7157 37.834C12.8034 37.9493 12.9319 38.0266 13.0749 38.0501C13.2179 38.0736 13.3644 38.0414 13.4844 37.9602C13.6044 37.8789 13.6887 37.7548 13.72 37.6134C13.97 36.6634 14.2367 35.7634 14.4367 34.8134C14.52 34.4134 14.5867 34.0134 14.6367 33.5967C14.6614 33.1915 14.6614 32.7852 14.6367 32.38C14.6367 31.3967 14.52 30.4634 14.4367 29.48C14.4412 29.4165 14.4331 29.3527 14.4129 29.2924C14.3928 29.232 14.3608 29.1762 14.319 29.1282C14.2772 29.0802 14.2263 29.0409 14.1693 29.0126C14.1123 28.9843 14.0502 28.9676 13.9867 28.9634ZM20.1883 28.5134C20.1994 28.3808 20.1573 28.2492 20.0713 28.1476C19.9854 28.046 19.8626 27.9827 19.73 27.9717C19.5974 27.9606 19.4658 28.0027 19.3642 28.0887C19.2627 28.1746 19.1994 28.2974 19.1883 28.43C18.943 29.497 18.8035 30.5856 18.7717 31.68C18.7828 32.3045 18.8272 32.9267 18.905 33.5467C19.0217 34.4434 19.0717 35.3434 19.055 36.2467C19.0253 36.3925 19.054 36.5441 19.1351 36.6688C19.2162 36.7935 19.3431 36.8814 19.4883 36.9134C19.636 36.9382 19.7875 36.9054 19.9116 36.8216C20.0357 36.7379 20.1229 36.6096 20.155 36.4634C20.4983 35.385 20.6833 34.2634 20.705 33.13C20.7217 32.4889 20.6883 31.85 20.605 31.2134C20.4883 30.33 20.2383 29.4467 20.1883 28.5134ZM26.5217 32.03C26.3383 31.2467 26.0717 30.53 25.855 29.7634C25.8423 29.6672 25.802 29.5768 25.7389 29.5032C25.6758 29.4295 25.5926 29.3759 25.4995 29.3487C25.4064 29.3215 25.3074 29.3219 25.2146 29.35C25.1218 29.378 25.0391 29.4325 24.9767 29.5067C24.8971 29.6077 24.8595 29.7354 24.8717 29.8634C24.7866 30.655 24.7421 31.4505 24.7383 32.2467C24.7606 32.9167 24.8494 33.5778 25.005 34.23C25.1717 34.9967 25.3883 35.73 25.5717 36.4967C25.5844 36.6441 25.6543 36.7807 25.7665 36.8772C25.8786 36.9737 26.024 37.0226 26.1717 37.0134C26.2838 37.004 26.3906 36.9614 26.4785 36.891C26.5664 36.8207 26.6313 36.7258 26.665 36.6184C26.6894 36.5472 26.6973 36.4714 26.6883 36.3967C26.7294 35.6034 26.7294 34.8089 26.6883 34.0134C26.7139 33.68 26.7139 33.3467 26.6883 33.0134C26.6574 32.6819 26.6017 32.3532 26.5217 32.03Z" fill="black"/>
<path d="M28.0233 12.5933C27.6248 12.3904 27.1869 12.2767 26.74 12.26C24.3084 12.1117 21.87 12.1117 19.4383 12.26C16.8811 12.3141 14.3398 12.6779 11.87 13.3433C11.37 13.5766 10.6533 14.0266 10.6533 16.2766C10.66 19.0644 10.8156 21.8433 11.12 24.6133C11.1562 24.8891 11.2846 25.1446 11.4843 25.3382C11.684 25.5318 11.9432 25.6523 12.22 25.68C14.12 25.68 20.67 25.4966 24.6217 25.2966C25.9217 25.2966 26.955 25.18 27.4383 25.13C27.665 25.11 27.8867 25.0466 28.0883 24.9466C28.4116 24.6201 28.6068 24.1883 28.6383 23.73C28.9117 21.7044 29.045 19.6705 29.0383 17.6283C29.0617 16.3766 28.955 15.125 28.7217 13.895C28.6276 13.4 28.3831 12.946 28.0217 12.595M26.355 14.1116C26.5267 14.0925 26.7 14.0925 26.8717 14.1116C25.8717 14.645 23.7217 15.7783 21.7867 16.6783L19.7367 17.6133C18.97 17.9466 18.82 18.0966 17.9533 17.6133C17.0867 17.13 16.2867 16.63 15.4367 15.9466C14.5867 15.2633 13.8367 15.0133 13.2017 14.4633C14.2406 14.3044 15.285 14.1989 16.335 14.1466C19.6433 13.9456 22.9604 13.9344 26.27 14.1133L26.355 14.1116ZM26.9717 23.3483C26.9717 23.4816 26.7883 23.4983 26.655 23.515C24.9883 23.6316 21.5533 23.965 18.32 24.1816C14.2533 24.4483 12.7017 24.515 12.235 24.5316C12.2131 24.5339 12.1909 24.5319 12.1698 24.5256C12.1487 24.5193 12.1291 24.5088 12.112 24.4949C12.095 24.4809 12.0809 24.4637 12.0705 24.4443C12.0602 24.4249 12.0538 24.4036 12.0517 24.3816C11.9179 23.036 11.8623 21.6837 11.885 20.3316C11.885 18.4316 11.885 16.3466 12.0517 15.18C13.1985 16.3341 14.4176 17.4141 15.7017 18.4133C16.501 19.1073 17.4382 19.6242 18.4517 19.93C19.5954 19.788 20.6938 19.3953 21.6683 18.78C23.5107 17.6933 25.2969 16.514 27.02 15.2466C27.02 15.6466 27.1033 16.0966 27.1367 16.5966C27.2333 18.8478 27.1776 21.103 26.97 23.3466" fill="black"/>
</svg>
