<svg width="133" height="22" viewBox="0 0 133 22" fill="none" xmlns="http://www.w3.org/2000/svg">
<path d="M9.00977 15.7773C9.00977 15.0938 8.84115 14.5332 8.50391 14.0957C8.17578 13.6491 7.30534 13.1387 5.89258 12.5645C4.47982 11.9902 3.24479 11.2611 2.1875 10.377C1.06641 9.43815 0.505859 8.11198 0.505859 6.39844C0.505859 4.72135 1.09375 3.37695 2.26953 2.36523C3.44531 1.3444 4.95833 0.833984 6.80859 0.833984C8.71354 0.833984 10.2311 1.4082 11.3613 2.55664C12.5007 3.70508 13.0703 5.17708 13.0703 6.97266H9.05078C9.05078 6.14323 8.86849 5.45964 8.50391 4.92188C8.14844 4.38411 7.56055 4.11523 6.74023 4.11523C5.98372 4.11523 5.42318 4.33854 5.05859 4.78516C4.70312 5.23177 4.52539 5.77409 4.52539 6.41211C4.52539 7.05925 4.79427 7.60156 5.33203 8.03906C5.87891 8.47656 6.59896 8.89128 7.49219 9.2832C9.35156 9.94857 10.7415 10.7826 11.6621 11.7852C12.5827 12.7878 13.043 14.1094 13.043 15.75C13.043 17.5 12.4915 18.8626 11.3887 19.8379C10.2858 20.804 8.78646 21.2871 6.89062 21.2871C5.7513 21.2871 4.65299 21.0547 3.5957 20.5898C2.54753 20.125 1.6862 19.4095 1.01172 18.4434C0.33724 17.4772 0 16.2376 0 14.7246H4.0332C4.0332 15.9277 4.27018 16.7754 4.74414 17.2676C5.22721 17.7598 5.94271 18.0059 6.89062 18.0059C7.66536 18.0059 8.21224 17.7962 8.53125 17.377C8.85026 16.9486 9.00977 16.4154 9.00977 15.7773ZM21.2801 20.918C20.6512 21.1641 19.9357 21.2871 19.1336 21.2871C17.9852 21.2871 17.0691 20.9499 16.3855 20.2754C15.702 19.6009 15.3602 18.4753 15.3602 16.8984V9.13281H13.6375V6.2207H15.3602V2.57031H19.2156V6.2207H21.198V9.13281H19.2156V16.4746C19.2156 17.0944 19.3022 17.5046 19.4754 17.7051C19.6577 17.9056 19.9585 18.0059 20.3777 18.0059C20.7332 18.0059 21.0385 17.9694 21.2938 17.8965L21.2801 20.918ZM28.5465 9.84375C27.471 9.84375 26.7509 10.304 26.3863 11.2246V21.0137H22.5172V6.2207H26.1676L26.277 7.82031C26.8967 6.57161 27.7398 5.94727 28.8062 5.94727C29.2255 5.94727 29.5764 6.00195 29.859 6.11133L29.818 9.95312C29.3622 9.88021 28.9384 9.84375 28.5465 9.84375ZM41.7328 19.0723C41.3409 19.6009 40.7211 20.1022 39.8734 20.5762C39.0349 21.0501 37.9822 21.2871 36.7152 21.2871C34.7009 21.2871 33.1423 20.6855 32.0395 19.4824C30.9457 18.2793 30.3988 16.6068 30.3988 14.4648V13.248C30.3988 10.8509 30.9184 9.03711 31.9574 7.80664C33.0056 6.56706 34.4594 5.94727 36.3187 5.94727C38.1781 5.94727 39.5772 6.53516 40.516 7.71094C41.4548 8.88672 41.9333 10.6504 41.9516 13.002V14.9023H34.2816C34.3272 16.0781 34.5779 16.903 35.0336 17.377C35.4984 17.8418 36.1456 18.0742 36.975 18.0742C38.2784 18.0742 39.3539 17.6276 40.2016 16.7344L41.7328 19.0723ZM36.3051 9.16016C35.6306 9.16016 35.1384 9.40169 34.8285 9.88477C34.5277 10.3587 34.35 11.1289 34.2953 12.1953H38.1645V11.8535C38.1462 10.9603 38.0004 10.2904 37.727 9.84375C37.4535 9.38802 36.9796 9.16016 36.3051 9.16016ZM54.3449 19.0723C53.953 19.6009 53.3332 20.1022 52.4855 20.5762C51.647 21.0501 50.5943 21.2871 49.3273 21.2871C47.313 21.2871 45.7544 20.6855 44.6516 19.4824C43.5578 18.2793 43.0109 16.6068 43.0109 14.4648V13.248C43.0109 10.8509 43.5305 9.03711 44.5695 7.80664C45.6177 6.56706 47.0715 5.94727 48.9309 5.94727C50.7902 5.94727 52.1893 6.53516 53.1281 7.71094C54.0669 8.88672 54.5454 10.6504 54.5637 13.002V14.9023H46.8937C46.9393 16.0781 47.19 16.903 47.6457 17.377C48.1105 17.8418 48.7577 18.0742 49.5871 18.0742C50.8905 18.0742 51.966 17.6276 52.8137 16.7344L54.3449 19.0723ZM48.9172 9.16016C48.2427 9.16016 47.7505 9.40169 47.4406 9.88477C47.1398 10.3587 46.9621 11.1289 46.9074 12.1953H50.7766V11.8535C50.7583 10.9603 50.6125 10.2904 50.3391 9.84375C50.0656 9.38802 49.5917 9.16016 48.9172 9.16016ZM62.5273 20.918C61.8984 21.1641 61.1829 21.2871 60.3809 21.2871C59.2324 21.2871 58.3164 20.9499 57.6328 20.2754C56.9492 19.6009 56.6074 18.4753 56.6074 16.8984V9.13281H54.8848V6.2207H56.6074V2.57031H60.4629V6.2207H62.4453V9.13281H60.4629V16.4746C60.4629 17.0944 60.5495 17.5046 60.7227 17.7051C60.9049 17.9056 61.2057 18.0059 61.625 18.0059C61.9805 18.0059 62.2858 17.9694 62.541 17.8965L62.5273 20.918ZM63.0672 4.45703V1.10742H76.8621V4.45703H71.9266V21.0137H67.907V4.45703H63.0672ZM82.9117 21.0137C82.775 20.7038 82.6656 20.321 82.5836 19.8652C81.8818 20.8132 80.943 21.2871 79.7672 21.2871C78.5732 21.2871 77.5569 20.8861 76.7184 20.084C75.8889 19.2819 75.4742 18.2109 75.4742 16.8711C75.4742 15.3672 75.9573 14.1777 76.9234 13.3027C77.8896 12.4186 79.3661 11.9766 81.3531 11.9766H82.3922V10.7871C82.3922 9.57487 81.9456 8.96875 81.0523 8.96875C80.0862 8.96875 79.6031 9.53385 79.6031 10.6641H75.734C75.734 9.36979 76.2216 8.26237 77.1969 7.3418C78.1813 6.41211 79.5029 5.94727 81.1617 5.94727C82.6292 5.94727 83.846 6.33008 84.8121 7.0957C85.7874 7.86133 86.275 9.11003 86.275 10.8418V17.7871C86.2932 19.0996 86.471 20.0977 86.8082 20.7812V21.0137H82.9117ZM80.6422 18.2383C81.0615 18.2383 81.4215 18.1517 81.7223 17.9785C82.023 17.8053 82.2464 17.6003 82.3922 17.3633V14.2871H81.4762C80.747 14.2871 80.2092 14.5104 79.8629 14.957C79.5165 15.4036 79.3434 15.9505 79.3434 16.5977C79.3434 17.6914 79.7763 18.2383 80.6422 18.2383ZM94.8266 17.0488C94.8266 16.666 94.6306 16.3288 94.2387 16.0371C93.8467 15.7454 93.1905 15.3991 92.2699 14.998C90.921 14.4694 89.8819 13.8678 89.1527 13.1934C88.4327 12.5189 88.0727 11.5892 88.0727 10.4043C88.0727 9.17383 88.5238 8.12565 89.4262 7.25977C90.3285 6.38477 91.5818 5.94727 93.1859 5.94727C94.8448 5.94727 96.1527 6.37565 97.1098 7.23242C98.0668 8.08008 98.5453 9.19661 98.5453 10.582H94.6762C94.6762 9.36979 94.1749 8.76367 93.1723 8.76367C92.2426 8.76367 91.7777 9.24674 91.7777 10.2129C91.7777 10.5957 91.9555 10.9193 92.3109 11.1836C92.6755 11.4479 93.3318 11.776 94.2797 12.168C95.7562 12.724 96.8409 13.3438 97.5336 14.0273C98.2354 14.7109 98.5863 15.6634 98.5863 16.8848C98.5863 18.1973 98.0987 19.2591 97.1234 20.0703C96.1482 20.8815 94.8357 21.2871 93.1859 21.2871C91.3995 21.2871 90.0323 20.7812 89.0844 19.7695C88.1456 18.7487 87.6762 17.6367 87.6762 16.4336H91.3402C91.3585 17.2357 91.5453 17.7734 91.9008 18.0469C92.2562 18.3203 92.712 18.457 93.268 18.457C94.307 18.457 94.8266 17.9876 94.8266 17.0488ZM107.808 21.0137L105.114 15.2852L104.062 16.4609V21.0137H100.193V0H104.062V11.3477L104.54 10.6504L107.234 6.2207H111.841L107.548 12.3047L112.238 21.0137H107.808ZM123.51 19.0723C123.118 19.6009 122.498 20.1022 121.65 20.5762C120.812 21.0501 119.759 21.2871 118.492 21.2871C116.478 21.2871 114.919 20.6855 113.816 19.4824C112.723 18.2793 112.176 16.6068 112.176 14.4648V13.248C112.176 10.8509 112.695 9.03711 113.734 7.80664C114.783 6.56706 116.236 5.94727 118.096 5.94727C119.955 5.94727 121.354 6.53516 122.293 7.71094C123.232 8.88672 123.71 10.6504 123.729 13.002V14.9023H116.059C116.104 16.0781 116.355 16.903 116.811 17.377C117.275 17.8418 117.923 18.0742 118.752 18.0742C120.055 18.0742 121.131 17.6276 121.979 16.7344L123.51 19.0723ZM118.082 9.16016C117.408 9.16016 116.915 9.40169 116.605 9.88477C116.305 10.3587 116.127 11.1289 116.072 12.1953H119.941V11.8535C119.923 10.9603 119.777 10.2904 119.504 9.84375C119.23 9.38802 118.757 9.16016 118.082 9.16016ZM131.159 9.84375C130.083 9.84375 129.363 10.304 128.999 11.2246V21.0137H125.13V6.2207H128.78L128.889 7.82031C129.509 6.57161 130.352 5.94727 131.419 5.94727C131.838 5.94727 132.189 6.00195 132.471 6.11133L132.43 9.95312C131.975 9.88021 131.551 9.84375 131.159 9.84375Z" fill="#168A45"/>
</svg>
